<svg width="148" height="72" viewBox="0 0 148 72" fill="none" xmlns="http://www.w3.org/2000/svg">
<g opacity="0.6" clip-path="url(#clip0_1374_82)">
<path d="M0 25.2827C0.522533 25.3008 1.03832 25.449 1.5676 25.3839C1.64851 25.3731 1.73279 25.3876 1.81707 25.3803C2.68683 25.3225 2.68683 25.3225 2.68683 26.2589C2.68683 30.6986 2.68683 35.1347 2.68683 39.5745C2.68683 39.7661 2.68683 39.9613 2.68683 40.2542C3.20599 39.4768 3.67121 38.7682 4.2342 38.1464C5.5793 36.6604 7.22781 36.0205 9.11904 36.2627C11.0406 36.5086 12.5138 37.586 13.5218 39.3756C14.459 41.0387 14.8703 42.85 15.022 44.777C15.2141 47.2464 14.813 49.5892 13.8454 51.7982C12.824 54.1338 11.2024 55.8475 8.75832 56.3608C6.63785 56.8055 4.44321 56.1222 3.08126 53.9313C2.90258 53.6457 2.80482 53.6312 2.58569 53.8771C2.04968 54.4808 1.4732 55.0448 0.94393 55.6558C0.674236 55.9668 0.397799 56.1512 0 56.0644C0 45.8074 0 35.5469 0 25.2827ZM12.1228 46.1075C12.1025 45.3411 12.0688 44.7951 12.0317 44.2528C11.9306 42.803 11.6103 41.4328 10.9462 40.1674C10.1843 38.714 8.96733 37.9728 7.45705 37.9909C6.07149 38.0054 4.94215 38.6923 4.16678 39.9975C3.18576 41.6533 2.85539 43.508 2.70031 45.4061C2.60592 46.5739 2.53176 47.7453 2.66323 48.9348C2.8419 50.5545 3.19925 52.073 4.07913 53.4287C4.87135 54.6508 6.58391 55.3341 7.92564 55.0231C9.3112 54.7014 10.1843 53.7324 10.8046 52.4779C11.8261 50.4243 12.0789 48.1755 12.1228 46.1075Z" fill="#383838"/>
<path d="M18.4774 40.7351C18.4774 35.8724 18.4774 31.0096 18.4774 26.1433C18.4774 25.2756 18.4774 25.2936 19.2663 25.3696C19.7585 25.4166 20.2574 25.4274 20.753 25.3406C21.3665 25.2322 21.4575 25.3045 21.4575 25.9697C21.4609 30.16 21.4575 34.3466 21.4643 38.5369C21.4643 38.7719 21.3463 39.1118 21.589 39.2166C21.8553 39.3323 22.0711 39.0575 22.2565 38.8587C23.2881 37.7524 24.1275 36.4761 25.0108 35.236C27.2762 32.0509 29.545 28.8693 31.8071 25.6805C32.006 25.4021 32.2318 25.2394 32.5689 25.3117C33.1117 25.4274 33.6511 25.4274 34.1938 25.3153C34.3186 25.29 34.4804 25.243 34.5546 25.3949C34.6355 25.5576 34.4737 25.6407 34.3927 25.7456C32.3802 28.3957 30.3777 31.0602 28.3449 33.6923C27.111 35.2903 25.9581 36.957 24.7377 38.5622C24.5085 38.8659 24.495 39.0901 24.7175 39.4408C27.3436 43.5732 30.1215 47.5935 32.6903 51.7693C33.4623 53.0275 34.2073 54.3074 34.9591 55.58C35.0468 55.7246 35.1917 55.8801 35.0805 56.0572C34.9658 56.238 34.7838 56.1295 34.622 56.1151C33.7286 56.0464 32.8353 56.0247 31.9453 56.1223C31.6115 56.1585 31.416 56.0753 31.2542 55.7716C28.5067 50.6016 25.1658 45.8473 22.1217 40.8869C22.0947 40.8435 22.0644 40.8002 22.034 40.7568C21.9228 40.6013 21.8014 40.3989 21.6059 40.4495C21.3631 40.5145 21.4643 40.7785 21.4643 40.952C21.4575 45.6376 21.4609 50.3232 21.4609 55.0088C21.4609 56.0825 21.4609 56.0753 20.4833 56.0753C19.9371 56.0753 19.391 56.0717 18.8449 56.1115C18.5651 56.1295 18.4875 56.003 18.4842 55.7499C18.4808 55.5728 18.4808 55.3956 18.4808 55.2184C18.4774 50.3919 18.4774 45.5617 18.4774 40.7351Z" fill="#383838"/>
<path d="M71.4251 39.7588C71.9173 39.0755 72.4062 38.4391 72.959 37.8534C74.8064 35.8939 77.9686 35.6444 80.0115 37.369C81.0532 38.2475 81.4746 39.5274 81.7342 40.8723C81.9466 41.9859 82.0545 43.1139 82.0545 44.2491C82.0545 47.9766 82.0545 51.7041 82.0545 55.4316C82.0545 56.1402 82.0511 56.1222 81.4038 56.0896C80.8746 56.0643 80.3419 56.0535 79.816 56.1041C79.4688 56.1366 79.3609 56.0101 79.371 55.6738C79.3744 55.5148 79.371 55.3557 79.371 55.193C79.371 51.9283 79.4014 48.6599 79.3575 45.3952C79.3407 44.1262 79.307 42.8463 79.0541 41.5882C78.653 39.5888 77.6079 38.5006 75.9695 38.3885C74.0614 38.2584 72.5376 39.2852 71.9173 41.1146C71.587 42.0907 71.4184 43.0922 71.4184 44.1334C71.4285 47.8609 71.4218 51.5884 71.4218 55.3159C71.4218 56.1149 71.4184 56.1005 70.7003 56.0752C70.1711 56.0571 69.6384 56.0571 69.1159 56.1077C68.7788 56.1402 68.654 56.0173 68.6473 55.6847C68.6439 55.5256 68.6439 55.3665 68.6439 55.2038C68.6439 45.5326 68.6439 35.8577 68.6439 26.1865C68.6439 26.0274 68.6473 25.8683 68.6473 25.7056C68.6473 25.3839 68.8091 25.2465 69.0923 25.3007C69.7193 25.4164 70.3396 25.4164 70.9667 25.3007C71.2498 25.2465 71.415 25.373 71.4184 25.6984C71.4184 25.8756 71.4218 26.0527 71.4218 26.2299C71.4218 30.525 71.4218 34.8201 71.4218 39.1152C71.4251 39.3358 71.4251 39.5455 71.4251 39.7588Z" fill="#383838"/>
<path d="M49.172 48.1357C49.172 49.929 49.1687 51.7186 49.172 53.5119C49.1754 54.5097 49.4788 54.7917 50.3958 54.6507C50.6284 54.6146 50.8846 54.5169 50.9385 54.8857C50.9824 55.1894 50.9824 55.4859 50.6351 55.6341C49.8631 55.9704 49.0574 56.0716 48.2483 55.9161C47.3246 55.739 46.8729 55.0123 46.6201 54.1048C46.583 53.9783 46.6268 53.783 46.4684 53.7432C46.3065 53.6999 46.2627 53.8915 46.1818 53.9927C44.9345 55.569 43.3298 56.4476 41.4183 56.4512C39.4664 56.4548 37.8415 55.3485 37.1808 53.1033C36.7594 51.668 36.8504 50.2182 37.3695 48.8263C37.7808 47.7236 38.5663 46.968 39.5676 46.4871C40.7846 45.9014 42.0959 45.6773 43.3972 45.4097C43.9501 45.2976 44.503 45.1819 45.039 45.012C46.1279 44.6649 46.5459 44.0503 46.5796 42.8355C46.5931 42.2824 46.5054 41.7401 46.4144 41.2014C45.9492 38.4934 43.6029 37.51 41.5094 38.1572C40.3665 38.5079 39.5271 39.2527 38.9877 40.3915C38.9102 40.5542 38.8596 40.8109 38.627 40.7639C38.3843 40.7133 38.4483 40.4566 38.4416 40.2758C38.4315 39.9757 38.4753 39.6648 38.4315 39.372C38.3168 38.6236 38.6708 38.1861 39.217 37.8173C40.9497 36.6459 42.7971 36.0096 44.867 36.3242C47.0684 36.6604 48.3225 38.0885 48.8552 40.3337C49.0608 41.1941 49.1619 42.0763 49.1653 42.9621C49.1788 44.6939 49.172 46.4148 49.172 48.1357ZM46.4886 49.271C46.4616 48.4033 46.5493 47.391 46.3942 46.3895C46.3504 46.1111 46.2863 45.9629 45.9896 46.0352C44.6075 46.3786 43.1848 46.5666 41.8836 47.2102C40.7778 47.7597 39.9755 48.6094 39.7732 49.9615C39.6822 50.5581 39.7024 51.1691 39.7496 51.7656C39.8642 53.1937 40.7104 54.2639 41.9375 54.5856C43.0095 54.8676 43.9771 54.6001 44.8232 53.877C45.8245 53.0238 46.7313 52.1091 46.4953 50.5255C46.4448 50.164 46.4886 49.7808 46.4886 49.271Z" fill="#383838"/>
<path d="M59.6901 36.2483C60.779 36.2049 61.7903 36.505 62.7747 36.9533C63.2062 37.1485 63.3782 37.4052 63.1826 37.9403C62.9601 38.5477 62.8388 39.1985 62.6669 39.8276C62.623 39.9903 62.6163 40.218 62.4073 40.2289C62.205 40.2397 62.1645 40.0192 62.0971 39.8637C61.8072 39.1949 61.433 38.5911 60.8835 38.1355C59.2923 36.8123 56.8583 37.9114 56.5279 40.0843C56.3594 41.187 56.4774 42.2137 57.1415 43.0995C57.6539 43.7864 58.4057 44.1118 59.1372 44.4445C59.7609 44.7301 60.398 44.9759 61.0386 45.2218C64.1367 46.4076 64.7098 49.0722 64.0086 51.9537C63.3748 54.5568 61.1229 56.1801 58.7563 56.4006C57.2898 56.538 55.9414 56.1801 54.63 55.5329C54.1951 55.3196 53.9861 55.0774 54.1883 54.5062C54.3906 53.9313 54.4648 53.3022 54.603 52.7021C54.6468 52.5068 54.5996 52.2248 54.8626 52.1887C55.1087 52.1525 55.1761 52.4201 55.2806 52.5864C55.6919 53.2552 56.1436 53.8771 56.7605 54.3543C57.836 55.1859 58.9754 55.4064 60.1621 54.7375C61.3319 54.0795 61.9488 53.0238 61.9926 51.5632C62.0533 49.5313 61.1229 48.6745 59.4137 47.9623C58.5675 47.6116 57.6809 47.3693 56.8415 46.9861C55.3952 46.3245 54.5187 45.1892 54.2996 43.5225C54.1142 42.1161 54.1816 40.7133 54.7614 39.4046C55.7458 37.1883 57.482 36.2845 59.6901 36.2483Z" fill="#383838"/>
<path d="M147.192 28.9053C146.444 28.9162 145.696 28.9378 144.961 28.9595C143.413 29.0029 141.819 29.0463 140.221 29.0029L140.275 28.8438C140.48 28.222 140.683 27.6001 140.895 26.9819C141.074 26.4577 141.256 25.9334 141.438 25.4092C141.674 24.7331 141.906 24.0607 142.136 23.3882C142.473 23.7497 142.813 24.1077 143.154 24.4692C143.825 25.1778 144.519 25.9081 145.16 26.6601C145.679 27.2711 146.225 27.8605 146.754 28.4317C146.903 28.5872 147.047 28.7462 147.192 28.9053Z" fill="#383838"/>
<path d="M133.502 39.5671C129.639 41.6279 126.143 43.5007 122.579 45.4783C121.406 46.1291 120.203 46.769 119.04 47.3909C117.603 48.1537 116.117 48.9455 114.671 49.7662C113.282 50.5507 111.849 51.3172 110.463 52.0547C109.294 52.6802 108.083 53.3274 106.903 53.9818C106.876 53.9962 106.849 54.0143 106.819 54.0288C106.812 53.989 106.802 53.9492 106.796 53.9095C106.56 52.8031 106.324 51.6968 106.088 50.5869C105.666 48.6092 105.241 46.6352 104.83 44.654C104.297 42.116 103.775 39.5779 103.256 37.0363L102.747 34.5706C102.7 34.3392 102.777 34.0825 102.865 33.7824C102.892 33.6884 102.919 33.5944 102.942 33.5004C103.377 31.812 103.822 30.1236 104.267 28.4388C104.803 26.4178 105.356 24.3281 105.879 22.2673C107.089 17.4877 108.397 12.3683 109.749 7.26694C109.927 6.59447 110.106 5.89308 110.315 5.04346L122.795 23.6195C123.995 25.4055 125.195 27.1915 126.392 28.9811C126.975 29.8561 127.559 30.731 128.142 31.6059C128.843 32.658 129.541 33.7137 130.245 34.7622C131.297 36.3277 132.393 37.9438 133.502 39.5671Z" fill="#383838"/>
<path d="M108.663 4.06735C108.306 5.44482 107.955 6.82229 107.601 8.19615L106.796 11.3596C106.371 13.0119 105.949 14.6677 105.525 16.32C105.255 17.3721 104.979 18.4242 104.706 19.4763C104.422 20.5681 104.136 21.66 103.856 22.7518C103.526 24.0389 103.195 25.326 102.868 26.6167C102.528 27.9436 102.191 29.2704 101.85 30.5973C101.661 31.3204 101.466 32.0362 101.27 32.7557L101.25 32.8388C100.778 32.1881 100.31 31.5373 99.8409 30.8865C98.7689 29.4042 97.7002 27.9183 96.6214 26.4395C95.7146 25.1958 94.801 23.9594 93.8874 22.7193C93.0615 21.5985 92.2356 20.4777 91.4164 19.3533C90.7859 18.4929 90.1656 17.6288 89.542 16.7647C88.9318 15.9151 88.3182 15.0654 87.7013 14.2194C87.0675 13.3517 86.427 12.4877 85.7899 11.6236C85.1493 10.7631 84.5122 9.90263 83.8784 9.03493C83.3154 8.26123 82.7592 7.48391 82.1995 6.7066C81.6568 5.94736 81.1107 5.19174 80.5612 4.43612C79.715 3.27918 78.8655 2.12587 78.0125 0.972547L77.2979 0C77.308 0.00361542 77.3181 0.00723084 77.3316 0.00723084C77.4664 0.0325388 77.5979 0.0542313 77.7294 0.0723084C78.7643 0.202463 79.7993 0.336234 80.8342 0.470004C81.4646 0.549543 82.095 0.639929 82.7221 0.730314C83.3525 0.817084 83.9829 0.90747 84.6133 0.987009C85.2269 1.06655 85.8404 1.13886 86.454 1.21116C87.0574 1.27986 87.6609 1.35217 88.2643 1.42809C88.8981 1.51124 89.5319 1.59801 90.1656 1.6884C90.7927 1.77517 91.4164 1.86556 92.0434 1.94509C92.5255 2.00656 93.0075 2.06079 93.4896 2.11502C93.965 2.16564 94.4403 2.21987 94.9156 2.28133C95.546 2.36087 96.1765 2.45125 96.8069 2.53802C97.4373 2.62841 98.0677 2.71518 98.6981 2.79833C99.1802 2.8598 99.6623 2.91403 100.144 2.96826C100.62 3.01887 101.095 3.07311 101.57 3.13095C102.211 3.21411 102.851 3.30449 103.495 3.39488C104.112 3.48165 104.733 3.56842 105.349 3.65157C106.442 3.79257 107.342 3.89742 108.191 3.97696C108.286 3.98419 108.38 4.00588 108.471 4.02758C108.535 4.04204 108.599 4.0565 108.663 4.06735Z" fill="#383838"/>
<path d="M106.054 59.3867C105.15 60.164 104.257 60.9486 103.364 61.7367C102.743 62.2827 102.123 62.8286 101.499 63.3709C100.717 64.0506 99.9318 64.7267 99.1463 65.4028C98.2462 66.1729 97.3495 66.9466 96.4595 67.7239C95.1312 68.8808 93.7962 70.0703 92.4916 71.2308L101.486 37.4014L101.493 37.4267C101.843 39.1368 102.184 40.7854 102.524 42.4376C102.696 43.2656 102.871 44.0899 103.043 44.9142C103.256 45.9121 103.465 46.9063 103.67 47.9005C103.994 49.4769 104.314 51.0532 104.638 52.6295C104.928 54.054 105.218 55.4748 105.511 56.8993C105.693 57.7923 105.872 58.6058 106.054 59.3867Z" fill="#383838"/>
<path d="M140.271 22.958C140.079 23.522 139.887 24.0896 139.698 24.6536C139.456 25.3659 139.216 26.0781 138.97 26.7903C138.653 27.7123 138.333 28.6306 138.013 29.5525C137.652 30.5865 137.295 31.6242 136.937 32.6582C136.543 33.8079 136.155 34.9612 135.764 36.1109C135.498 36.9027 135.228 37.6908 134.962 38.479L134.183 37.3293C133.276 35.9916 132.373 34.6575 131.473 33.3234C130.353 31.6675 129.234 30.0117 128.118 28.3522L126.763 26.342C126.608 26.107 126.453 25.8756 126.294 25.6406C126.975 25.5141 127.66 25.384 128.341 25.2574C129.608 25.0188 130.876 24.7802 132.14 24.5379C133.162 24.3427 134.183 24.1402 135.204 23.9378C135.973 23.7823 136.738 23.6305 137.507 23.4822C138.424 23.3051 139.341 23.1315 140.271 22.958Z" fill="#383838"/>
<path d="M133.637 41.6064C133.468 42.1813 133.286 42.7489 133.094 43.3491C133.084 43.3816 133.037 43.4069 132.872 43.472C132.824 43.4901 132.777 43.5082 132.733 43.5262C130.697 44.412 128.661 45.2869 126.621 46.1655L121.902 48.201C121.379 48.4251 120.86 48.6493 120.338 48.8734C121.383 48.3058 122.434 47.731 123.469 47.1453C124.437 46.5993 125.435 46.0679 126.402 45.5545C127.501 44.9652 128.641 44.3614 129.746 43.7251C130.68 43.19 131.648 42.673 132.582 42.1704C132.936 41.9824 133.286 41.7944 133.637 41.6064Z" fill="#383838"/>
<path d="M84.5154 12.8747C84.8222 13.2977 85.129 13.7207 85.4357 14.1437C85.1391 13.8472 84.8424 13.5472 84.5457 13.2543C83.74 12.4445 82.9343 11.631 82.132 10.8211L81.1678 9.84136C80.7801 9.45451 80.3958 9.06766 80.0081 8.6772C79.2294 7.89627 78.4507 7.11172 77.6787 6.32356C77.5506 6.18979 77.4191 6.05963 77.2876 5.92948C77.3449 5.9331 77.4022 5.9331 77.4629 5.93671C77.891 5.95117 78.336 5.96925 78.7878 5.89694C79.2463 5.82825 79.5126 5.98371 79.9373 6.57302C80.8745 7.88181 81.8387 9.20505 82.7725 10.4813C83.3557 11.2803 83.9356 12.0757 84.5154 12.8747Z" fill="#383838"/>
</g>
<defs>
<clipPath id="clip0_1374_82">
<rect width="147.192" height="71.231" fill="white"/>
</clipPath>
</defs>
</svg>
