<svg width="158" height="24" viewBox="0 0 158 24" fill="none" xmlns="http://www.w3.org/2000/svg">
<g opacity="0.6" clip-path="url(#clip0_1374_102)">
<path d="M-0.000220011 15.7295C0.196263 15.7378 0.39387 15.7521 0.590353 15.7521C8.04101 15.7533 15.4928 15.7533 22.9434 15.7545C23.1354 15.7545 23.3263 15.7748 23.5587 15.7879C23.4958 15.9142 23.4689 15.9916 23.424 16.056C23.1444 16.4623 22.857 16.8626 22.583 17.2725C22.473 17.4358 22.3461 17.5239 22.1541 17.5061C22.0632 17.4977 21.97 17.5049 21.8779 17.5049C14.7428 17.5049 7.60762 17.5049 0.472463 17.5049C0.314154 17.5049 0.156967 17.4965 -0.00134277 17.4918C-0.000220011 16.9043 -0.000220011 16.3169 -0.000220011 15.7295Z" fill="#383838"/>
<path d="M0 18.9178C0.157187 18.9095 0.314374 18.8928 0.47156 18.8928C7.27775 18.8916 14.0839 18.8916 20.8901 18.8916C21.0327 18.8916 21.1753 18.8916 21.3718 18.8916C21.3201 19.0251 21.3022 19.1156 21.255 19.1847C20.9788 19.5934 20.6903 19.9926 20.4174 20.4037C20.3063 20.5705 20.1693 20.642 19.9818 20.6253C19.9032 20.6181 19.8235 20.6241 19.7449 20.6241C13.3339 20.6241 6.92296 20.6241 0.51198 20.6229C0.34132 20.6229 0.171783 20.605 0.00112276 20.5967C0 20.0367 0 19.4766 0 18.9178Z" fill="#383838"/>
<path d="M0 22.0222C0.15831 22.0186 0.315496 22.0103 0.473806 22.0103C6.52887 22.0103 12.5851 22.0103 18.6401 22.0103C18.8096 22.0103 18.9792 22.0103 19.1992 22.0103C19.1498 22.1437 19.1341 22.2378 19.0858 22.3081C18.8096 22.7168 18.5233 23.1172 18.2471 23.5259C18.145 23.676 18.0226 23.7511 17.8474 23.7368C17.743 23.7284 17.6375 23.7356 17.5319 23.7356C11.871 23.7356 6.21112 23.7356 0.550154 23.7344C0.367144 23.7344 0.184133 23.7118 0.00112276 23.6998C0 23.141 0 22.581 0 22.0222Z" fill="#383838"/>
<path d="M65.5513 13.9228C65.6231 13.8096 65.6916 13.6916 65.768 13.582C68.8286 9.16976 71.8904 4.7599 74.9465 0.344088C75.1093 0.108164 75.2834 0.00211794 75.5663 0.00211794C80.1236 0.0104587 84.6809 0.0080756 89.2382 0.00926713C89.3628 0.00926713 89.4886 0.0271401 89.7008 0.0438216C89.0765 0.989898 88.4669 1.84184 87.8707 2.70332C87.2633 3.58267 86.6525 4.45845 86.0439 5.3378C85.4466 6.19927 84.8516 7.06194 84.2183 7.97704C84.4081 7.98895 84.5215 8.00206 84.6349 8.00206C86.4919 8.00325 88.349 7.9973 90.206 8.00802C90.4845 8.00921 90.6619 7.91508 90.828 7.67439C92.492 5.26035 94.1716 2.85941 95.8311 0.441793C96.0478 0.126037 96.2701 -0.00264818 96.6428 -0.00145665C101.134 0.0116502 105.625 0.00688407 110.117 0.00688407C110.27 0.00688407 110.424 0.00688407 110.667 0.00688407C110.538 0.211828 110.466 0.336938 110.384 0.456091C107.91 4.02473 105.435 7.59217 102.961 11.1608C102.368 12.0163 101.769 12.8683 101.184 13.7298C101.04 13.9442 100.878 14.0634 100.626 14.0372C100.522 14.0264 100.415 14.036 100.311 14.036C88.9317 14.036 77.5514 14.036 66.1722 14.036C65.979 14.036 65.7859 14.036 65.5928 14.036C65.5793 13.999 65.5647 13.9609 65.5513 13.9228Z" fill="#383838"/>
<path d="M22.7572 7.33989C22.8773 7.13853 22.9335 7.03248 23.0008 6.93477C24.5233 4.73878 26.0503 2.54755 27.5626 0.344411C27.7411 0.0846571 27.9309 0.00244141 28.2217 0.00244141C37.773 0.0095906 47.3232 0.0107821 56.8746 0.006016C58.2174 0.006016 59.5288 0.183554 60.7852 0.703062C62.1201 1.25474 63.2418 2.1055 64.03 3.39592C64.799 4.65537 65.1011 6.02802 64.835 7.51743C64.7227 8.14418 64.4858 8.71731 64.1288 9.23205C63.0902 10.7298 62.0472 12.2228 61.0187 13.7277C60.8593 13.96 60.6808 14.0387 60.4214 14.0387C56.8252 14.0327 53.229 14.0387 49.6328 14.0292C49.2668 14.028 48.8929 13.9886 48.5381 13.8993C48.0115 13.767 47.8902 13.4239 48.1518 12.9246C48.2405 12.7542 48.3539 12.5969 48.4617 12.4385C49.2735 11.2505 50.0886 10.0649 50.8981 8.8734C51.0441 8.65892 51.1844 8.43491 51.2888 8.19661C51.4808 7.75931 51.3573 7.51148 50.9116 7.39471C50.7971 7.36492 50.6781 7.353 50.5602 7.34943C50.2974 7.34109 50.0336 7.33989 49.7697 7.33989C40.983 7.33989 32.1963 7.33989 23.4095 7.33989C23.2265 7.33989 23.0446 7.33989 22.7572 7.33989Z" fill="#383838"/>
<path d="M20.7913 23.6307C20.8597 23.5163 20.9226 23.3984 20.9978 23.29C24.2056 18.6632 27.4167 14.0377 30.6199 9.40623C30.7872 9.16554 30.9669 9.07617 31.2442 9.07617C35.2884 9.08451 39.3326 9.08094 43.3768 9.08332C43.5744 9.08332 43.7742 9.08451 43.9673 9.11907C44.5938 9.23107 44.7499 9.55993 44.4569 10.1521C44.3536 10.3606 44.2244 10.5584 44.0931 10.7491C43.2611 11.9561 42.4224 13.1584 41.5916 14.3666C41.4681 14.5453 41.3547 14.7383 41.2738 14.9421C41.1615 15.2233 41.2435 15.4354 41.5062 15.5593C41.6713 15.6367 41.8554 15.6904 42.0362 15.7094C42.3506 15.7428 42.6672 15.7499 42.9827 15.7511C48.3046 15.7607 53.6265 15.7678 58.9472 15.775C59.1157 15.775 59.2841 15.775 59.5075 15.775C59.4435 15.9191 59.4199 16.0121 59.3694 16.0824C56.704 19.7654 53.3345 22.3236 49.0141 23.3471C48.0227 23.5819 47.0168 23.7141 45.9995 23.7272C45.7233 23.7308 45.446 23.7344 45.1698 23.7344C37.2397 23.7344 29.3097 23.7344 21.3796 23.7344C21.1977 23.7344 21.0158 23.7344 20.8328 23.7344C20.8193 23.701 20.8059 23.6665 20.7913 23.6307Z" fill="#383838"/>
<path d="M137.293 15.8782C137.223 15.9914 137.159 16.1094 137.083 16.219C135.421 18.6164 133.755 21.0113 132.099 23.4135C131.931 23.6554 131.748 23.74 131.473 23.74C123.809 23.7328 116.144 23.7328 108.48 23.734C107.249 23.734 106.035 23.6089 104.858 23.2026C104.253 22.9941 103.682 22.7093 103.185 22.2791C102.484 21.6703 102.068 20.9077 102.125 19.9175C102.159 19.3325 102.349 18.7939 102.664 18.3185C103.186 17.5297 103.731 16.7576 104.263 15.9759C104.355 15.8401 104.466 15.7662 104.628 15.7746C104.759 15.7817 104.892 15.7746 105.023 15.7746C115.572 15.7746 126.12 15.7746 136.668 15.7746C136.864 15.7746 137.059 15.7746 137.253 15.7746C137.268 15.8091 137.28 15.8437 137.293 15.8782Z" fill="#383838"/>
<path d="M130.716 0.0363509C130.591 0.235337 130.523 0.352107 130.447 0.462919C127.387 4.87397 124.325 9.28383 121.269 13.6996C121.106 13.9368 120.929 14.0428 120.649 14.0428C115.803 14.0357 110.956 14.038 106.11 14.0368C105.984 14.0368 105.858 14.0154 105.663 13.9975C105.773 13.8224 105.84 13.708 105.915 13.6007C108.983 9.17897 112.055 4.75839 115.119 0.333042C115.285 0.0935444 115.468 0.00537109 115.746 0.00537109C120.579 0.0125203 125.411 0.0101372 130.245 0.0113288C130.373 0.0101372 130.501 0.0244356 130.716 0.0363509Z" fill="#383838"/>
<path d="M78.7708 15.7845C78.6451 15.9835 78.5766 16.1002 78.4991 16.211C76.8531 18.587 75.2016 20.9593 73.5657 23.3424C73.3647 23.6343 73.1548 23.7439 72.8146 23.7439C68.31 23.732 63.8055 23.7356 59.301 23.7344C59.1505 23.7344 58.999 23.7201 58.78 23.7093C58.8878 23.5282 58.9496 23.4103 59.0248 23.303C60.6865 20.9045 62.3527 18.5095 64.0087 16.1074C64.1738 15.8691 64.3512 15.7344 64.6307 15.7773C64.6431 15.7797 64.6566 15.7773 64.67 15.7773C69.1746 15.7702 73.6791 15.763 78.1836 15.7571C78.3509 15.7547 78.5182 15.7714 78.7708 15.7845Z" fill="#383838"/>
<path d="M99.6642 15.8892C99.5845 16.0143 99.5082 16.1418 99.4251 16.2622C97.7937 18.6143 96.1567 20.9628 94.5343 23.322C94.3278 23.6235 94.1099 23.745 93.7529 23.7438C89.2619 23.7307 84.7708 23.7355 80.2798 23.7355C80.1259 23.7355 79.9732 23.7355 79.7419 23.7355C79.8396 23.5555 79.8868 23.4459 79.9519 23.3506C81.6372 20.9187 83.328 18.4915 85.0055 16.0537C85.1727 15.8106 85.3647 15.7725 85.6129 15.7725C89.2349 15.776 92.8569 15.7748 96.4778 15.7748C97.3862 15.7748 98.2956 15.7748 99.2039 15.7748C99.3443 15.7748 99.4846 15.7748 99.625 15.7748C99.6384 15.813 99.6519 15.8511 99.6642 15.8892Z" fill="#383838"/>
<path d="M157.903 22.0098C157.961 22.6163 157.947 23.1501 157.91 23.7352C150.105 23.7352 142.347 23.7352 134.525 23.7352C134.602 23.5755 134.633 23.4861 134.682 23.4123C134.944 23.0274 135.215 22.6485 135.474 22.2612C135.59 22.0861 135.726 21.986 135.935 22.0098C136.026 22.0206 136.119 22.011 136.211 22.011C143.242 22.011 150.273 22.011 157.304 22.011C157.485 22.0098 157.668 22.0098 157.903 22.0098Z" fill="#383838"/>
<path d="M157.904 18.8921C157.904 19.495 157.904 20.03 157.904 20.5948C150.832 20.5948 143.793 20.5948 136.722 20.5948C136.752 20.5006 136.761 20.4184 136.802 20.3588C137.086 19.9394 137.38 19.526 137.663 19.1054C137.764 18.954 137.886 18.879 138.062 18.8909C138.166 18.898 138.273 18.8909 138.377 18.8909C144.685 18.8909 150.991 18.8909 157.299 18.8909C157.482 18.8921 157.664 18.8921 157.904 18.8921Z" fill="#383838"/>
<path d="M138.851 17.4776C138.904 17.3632 138.923 17.2976 138.959 17.2452C139.245 16.827 139.539 16.4135 139.82 15.9917C139.93 15.8273 140.061 15.7451 140.25 15.7546C140.355 15.7594 140.461 15.7534 140.565 15.7534C146.136 15.7534 151.708 15.7534 157.279 15.7534C157.473 15.7534 157.667 15.7534 157.907 15.7534C157.959 16.3611 157.945 16.9056 157.915 17.4776C151.548 17.4776 145.231 17.4776 138.851 17.4776Z" fill="#383838"/>
</g>
<defs>
<clipPath id="clip0_1374_102">
<rect width="157.942" height="23.7437" fill="white"/>
</clipPath>
</defs>
</svg>
