<svg width="103" height="33" viewBox="0 0 103 33" fill="none" xmlns="http://www.w3.org/2000/svg">
<g opacity="0.6" clip-path="url(#clip0_1374_97)">
<path d="M51.8685 0.00641135C54.1964 0.00641135 56.5259 0.00641135 58.8538 0.00641135C58.8553 0.0641135 58.8584 0.121816 58.8584 0.177915C58.8584 10.5691 58.8584 20.9603 58.8568 31.3515C56.7711 31.3563 54.6868 31.3611 52.601 31.3643C51.8455 31.3659 51.8455 31.3643 51.8455 30.5709C51.8455 30.1766 51.8455 29.7807 51.8455 29.3656C51.7627 29.396 51.7398 29.3992 51.7244 29.4121C51.6999 29.4329 51.6769 29.4585 51.657 29.4874C50.5475 31.0886 49.0548 32.0503 47.1989 32.4062C47.133 32.419 47.0303 32.4062 47.0563 32.536C46.3759 32.536 45.6939 32.536 45.0135 32.536C44.9936 32.3597 44.851 32.4158 44.7591 32.403C42.9246 32.1321 41.3063 31.3467 39.924 30.074C37.9439 28.2516 36.7945 25.9387 36.3746 23.2219C36.3424 23.0135 36.3593 22.81 36.0359 22.8116C31.5992 22.8228 27.1626 22.8212 22.7259 22.8132C22.4669 22.8132 22.4117 22.8981 22.4347 23.1514C22.5956 24.9514 23.7435 26.4725 25.4369 26.9325C26.8591 27.3188 28.7012 27.1889 29.7372 25.4915C29.8215 25.3537 29.9242 25.2944 30.0882 25.2944C32.1969 25.3008 34.3057 25.3008 36.4145 25.2944C36.6397 25.2944 36.6781 25.3601 36.5892 25.5733C35.5823 27.9952 34.1019 29.9907 31.7954 31.1768C29.1809 32.5216 26.4193 32.7396 23.6086 32.0632C20.7091 31.3643 18.4471 29.6765 16.9483 26.9661C15.5138 24.3711 15.2533 21.5758 15.8019 18.6699C15.8939 18.1874 15.9061 18.189 15.4402 18.189C13.1016 18.189 10.7614 18.189 8.42279 18.189C7.97222 18.189 7.97222 18.189 7.97222 18.6458C7.97222 22.7459 7.96916 26.8475 7.97835 30.9476C7.97989 31.273 7.90939 31.3739 7.58296 31.3723C5.05735 31.3579 2.53174 31.3643 0.00459759 31.3643C0.00613012 21.0164 0.00766265 10.6669 0 0.317362C0 0.0577022 0.0551711 0 0.303441 0C6.11326 0.00801419 11.9231 0.00641135 17.7329 0.00641135C17.7283 0.155475 17.7191 0.304539 17.7191 0.453603C17.7176 2.47478 17.7191 4.49596 17.7191 6.51874C17.7191 7.006 17.7191 7.006 17.2578 7.006C14.3031 7.006 11.3499 7.01081 8.3952 6.99959C8.08103 6.99799 7.95537 7.0589 7.96303 7.43075C7.98755 8.63609 7.98448 9.84303 7.96456 11.0484C7.95843 11.385 8.05498 11.4667 8.36915 11.4667C11.0925 11.4539 13.8158 11.4635 16.5391 11.4539C16.8073 11.4523 16.9007 11.526 16.8961 11.8177C16.8808 12.9317 16.8885 14.0457 16.8931 15.1596C16.8931 15.2478 16.8456 15.3584 16.9636 15.4465C17.0356 15.3279 17.0984 15.2221 17.1613 15.118C18.0977 13.5808 19.3451 12.4028 20.893 11.5693C23.178 10.3383 25.6162 10.0177 28.1281 10.3591C32.2184 10.9153 35.026 13.2138 36.4742 17.2818C36.5371 17.4597 36.603 17.636 36.6949 17.8909C36.7593 17.7065 36.7991 17.604 36.8328 17.4998C38.1799 13.2923 41.7339 10.2133 46.2656 10.3319C48.3161 10.3848 50.126 11.0131 51.5574 12.6191C51.6218 12.6913 51.6769 12.7874 51.7919 12.8051C51.8915 12.6736 51.844 12.5182 51.8455 12.3771C51.8486 8.4149 51.847 4.45108 51.8486 0.488865C51.847 0.326979 51.8608 0.166695 51.8685 0.00641135ZM51.6279 21.5405C51.631 20.2262 51.4455 19.0946 50.9337 18.0351C49.5988 15.2686 46.2748 15.4834 44.848 17.0943C43.0488 19.1251 42.8971 22.8645 44.5338 25.0363C46.3146 27.3989 50.0509 27.104 51.1865 24.0297C51.4992 23.1834 51.6401 22.3067 51.6279 21.5405ZM26.4162 18.2707C27.5809 18.2707 28.7441 18.2723 29.9089 18.2675C30.0269 18.2675 30.2276 18.3477 30.1587 18.064C29.9441 17.1728 29.561 16.3842 28.856 15.8088C27.0568 14.3406 23.7113 14.6515 22.7274 17.9358C22.637 18.2355 22.7351 18.2788 22.991 18.2756C24.1328 18.2643 25.2745 18.2707 26.4162 18.2707Z" fill="#383838"/>
<path d="M76.7538 31.3454C76.645 31.3518 76.5362 31.3662 76.4259 31.3662C71.0758 31.3678 65.7273 31.3678 60.3772 31.3662C60.2791 31.3662 60.1811 31.3582 60.0814 31.3534C60.0814 20.9622 60.083 10.571 60.083 0.179804C60.083 0.122102 60.0799 0.0644001 60.0784 0.00830078C65.6353 0.00830078 71.1938 0.00830078 76.7508 0.00830078C76.6956 0.141336 76.7201 0.280783 76.7201 0.417024C76.7186 2.48468 76.7109 4.55235 76.7262 6.6184C76.7293 6.94538 76.6297 7.0111 76.3385 7.0111C73.4175 6.99988 70.4965 7.00308 67.5755 7.00629C67.0422 7.00629 67.1326 6.94859 67.1311 7.48714C67.1265 8.68125 67.1387 9.87697 67.1234 11.0711C67.1188 11.3756 67.1847 11.4718 67.4943 11.4702C70.4367 11.4574 73.3807 11.4622 76.3232 11.4622C76.4872 11.4622 76.6527 11.4718 76.8167 11.4766C76.8167 11.5038 76.8167 11.5295 76.8182 11.5567C76.6466 11.6353 76.7247 11.7972 76.7247 11.9174C76.7186 13.8809 76.7125 15.8443 76.7278 17.8078C76.7308 18.1332 76.6343 18.2005 76.3416 18.2005C73.3777 18.1893 70.4122 18.1973 67.4483 18.1877C67.1862 18.1861 67.1234 18.263 67.1249 18.5307C67.1357 20.3563 67.1387 22.182 67.1234 24.0076C67.1203 24.3089 67.2138 24.357 67.4744 24.357C70.4383 24.3474 73.4037 24.3554 76.3676 24.3426C76.668 24.341 76.7293 24.4339 76.7262 24.7289C76.714 26.7837 76.7186 28.8401 76.7247 30.895C76.7247 31.0136 76.6435 31.1771 76.8213 31.2524C76.7983 31.2813 76.7768 31.3133 76.7538 31.3454Z" fill="#383838"/>
<path d="M76.7537 31.3453C76.7767 31.3133 76.7981 31.2812 76.8211 31.2492C77.2916 30.6898 77.7575 30.1272 78.231 29.571C80.4838 26.9215 82.7367 24.272 84.9971 21.6289C85.132 21.4703 85.1473 21.3805 85.0048 21.2154C83.3665 19.3 81.7329 17.3798 80.1022 15.4564C79.0034 14.1597 77.9123 12.8566 76.818 11.5567C76.818 11.5295 76.818 11.5038 76.8165 11.4766C76.9483 11.4718 77.0786 11.4621 77.2104 11.4621C79.8892 11.4605 82.5681 11.4669 85.2469 11.4541C85.5397 11.4525 85.7343 11.5503 85.9213 11.7699C87.1427 13.1996 88.3794 14.6149 89.5963 16.0479C89.7832 16.2674 89.8691 16.2706 90.0545 16.0463C91.2284 14.6197 92.4238 13.2108 93.5992 11.7859C93.7954 11.5487 93.9946 11.4525 94.2996 11.4541C96.8804 11.4685 99.4596 11.4621 102.04 11.4621C102.16 11.4621 102.281 11.4621 102.402 11.4621C102.44 11.6176 102.319 11.6753 102.253 11.7506C99.6052 14.865 96.957 17.9777 94.2981 21.0824C94.1034 21.31 94.1034 21.4222 94.3027 21.653C97.0459 24.8474 99.7753 28.0547 102.508 31.2588C102.522 31.2748 102.526 31.2972 102.537 31.3213C102.47 31.4078 102.375 31.3662 102.296 31.3662C99.4964 31.3694 96.6965 31.3662 93.8965 31.3726C93.7019 31.3726 93.5747 31.3085 93.4475 31.1594C92.1985 29.6784 90.9388 28.2086 89.6928 26.7244C89.5212 26.5192 89.4476 26.5304 89.2806 26.7292C88.0316 28.2246 86.7672 29.7072 85.5105 31.1947C85.4201 31.3005 85.3343 31.3726 85.181 31.3726C82.4026 31.3662 79.6256 31.3678 76.8471 31.3662C76.818 31.3646 76.7858 31.3517 76.7537 31.3453Z" fill="#383838"/>
</g>
<defs>
<clipPath id="clip0_1374_97">
<rect width="102.539" height="32.5376" fill="white"/>
</clipPath>
</defs>
</svg>
