<svg width="136" height="63" viewBox="0 0 136 63" fill="none" xmlns="http://www.w3.org/2000/svg">
<g opacity="0.6" clip-path="url(#clip0_1374_15)">
<path d="M90.9059 36.4762C91.2213 36.9706 91.4857 37.3541 91.717 37.7566C92.1826 38.5648 92.8645 38.9673 93.7477 39.0339C94.8262 39.1131 95.8566 38.9356 96.8179 38.4C97.2204 38.175 97.5779 37.8866 97.8242 37.4714C98.1907 36.8597 98.1036 36.2416 97.7912 35.649C97.4848 35.069 96.9801 34.8408 96.3613 34.8693C96.139 34.8788 95.9497 34.9866 95.7514 35.0721C93.6786 35.9564 91.6659 35.7884 89.8214 34.4731C88.3795 33.4462 88.007 31.8425 88.1121 30.1025C88.1902 28.8379 88.7099 27.7572 89.512 26.8317C90.8308 25.3104 92.471 24.442 94.3936 24.0934C96.7728 23.6623 98.8937 24.2487 100.834 25.7161C101.808 26.4514 102.721 27.2628 103.565 28.1565C103.715 28.315 103.823 28.521 103.977 28.6795C104.229 28.5305 104.154 28.3625 104.154 28.2358C104.16 27.3673 104.154 26.4989 104.16 25.6305C104.163 24.778 104.349 24.5815 105.172 24.5815C113.088 24.5815 121.001 24.5815 128.916 24.5815C130.779 24.5815 132.638 24.5815 134.501 24.5815C134.678 24.5815 134.855 24.5719 135.03 24.6005C135.414 24.6639 135.615 24.9047 135.618 25.3199C135.621 25.9823 135.618 26.6416 135.597 27.304C135.576 27.9252 135.351 28.147 134.762 28.1724C134.585 28.1787 134.411 28.1755 134.233 28.1755C129.22 28.1755 124.203 28.1755 119.189 28.1755C118.417 28.1755 118.489 28.09 118.489 28.8982C118.486 30.6762 118.486 32.4542 118.489 34.2291C118.489 34.4097 118.453 34.5967 118.531 34.7774C118.705 34.8313 118.769 34.6665 118.862 34.5809C120.4 33.1356 121.977 31.7443 123.722 30.5843C124.735 29.9092 125.795 29.3324 126.964 29.0123C127.411 28.8887 127.847 28.8918 128.291 29.0313C129.295 29.3482 130.241 29.7793 131.088 30.4322C131.68 30.8885 132.182 31.4337 132.572 32.0897C132.698 32.3021 132.801 32.5271 132.861 32.7648C132.963 33.1673 132.834 33.5477 132.467 33.6903C131.749 33.9755 131.35 34.5714 131.007 35.2306C130.52 36.1624 130.247 37.1766 130.043 38.2098C129.577 40.59 129.436 42.9988 129.559 45.4234C129.595 46.165 129.709 46.9003 129.902 47.6198C129.989 47.9399 130.097 48.2473 130.244 48.5389C130.68 49.3946 131.253 49.6577 132.143 49.4136C132.182 49.4041 132.218 49.3946 132.257 49.3851C133.179 49.1601 133.17 49.065 133.597 50.1141C133.864 50.7701 133.894 51.4832 133.786 52.1869C133.645 53.1218 132.921 53.8032 131.911 53.9712C130.671 54.1741 129.583 53.8349 128.67 52.9126C128.021 52.2597 127.564 51.4706 127.192 50.6212C126.534 49.1221 126.231 47.5247 126.026 45.9051C125.861 44.6152 125.846 43.3094 125.741 42.0163C125.579 40.0164 125.525 38.0165 125.516 36.0134C125.516 35.9564 125.489 35.9025 125.465 35.8106C125.233 35.8455 125.071 35.9944 124.894 36.1149C122.334 37.8358 120.718 40.3016 119.823 43.3252C119.526 44.3299 119.297 45.3568 119.186 46.409C119.114 47.1031 118.69 47.4042 118.072 47.1475C116.798 46.6151 115.542 46.0382 114.274 45.4868C114.076 45.4012 114.013 45.2649 114.022 45.0589C114.028 44.8941 114.022 44.7293 114.022 44.5645C114.022 39.3572 114.022 34.1467 114.022 28.9394C114.022 28.1026 114.106 28.1819 113.292 28.1787C111.922 28.1755 110.549 28.1755 109.18 28.1787C108.633 28.1787 108.627 28.1851 108.627 28.7492C108.624 30.8568 108.627 32.9645 108.627 35.0721C108.627 41.4363 108.627 47.8036 108.627 54.1677C108.627 54.3547 108.636 54.5417 108.624 54.7255C108.576 55.4101 108.077 55.6985 107.512 55.3531C106.716 54.865 105.932 54.3579 105.142 53.8571C104.875 53.686 104.61 53.5085 104.334 53.35C104.118 53.2264 104.022 53.0584 104.046 52.7985C104.061 52.6337 104.049 52.4689 104.049 52.3041C104.049 46.2474 104.046 40.1939 104.058 34.1372C104.058 33.6586 103.947 33.2624 103.691 32.8726C102.994 31.7918 102.219 30.7808 101.327 29.8775C100.438 28.9774 99.4404 28.2611 98.1998 28.0107C97.3586 27.8428 96.5175 27.8681 95.7124 28.2072C94.8472 28.5717 94.2284 29.1866 94.0091 30.1849C93.8348 30.9773 94.0992 31.608 94.655 32.1214C94.8833 32.3338 95.1626 32.432 95.4751 32.3211C95.7154 32.2355 95.9587 32.1595 96.199 32.0676C97.9114 31.4178 99.3503 31.7855 100.555 33.2212C101.291 34.096 101.871 35.0816 102.144 36.2258C102.441 37.465 102.306 38.7043 101.919 39.8896C100.474 44.3204 96.6707 45.3663 93.6846 44.4377C92.2487 43.9908 91.1973 42.9766 90.4673 41.6138C89.9326 40.6122 89.7974 39.56 90.224 38.457C90.4553 37.8549 90.6475 37.2273 90.9059 36.4762Z" fill="#383838"/>
<path d="M12.9656 11.7264C12.6442 12.5441 12.2957 13.3523 12.0013 14.1827C11.1181 16.6707 10.5534 19.241 10.3341 21.8875C9.87744 27.4149 10.5353 32.768 12.6983 37.8644C14.0291 40.9989 15.8495 43.7594 18.4 45.9368C20.3706 47.6229 22.5876 48.7576 25.1231 49.0904C26.8384 49.3154 28.5597 49.2615 30.272 48.9477C36.0278 47.8955 40.5579 43.5376 41.8948 37.5252C43.0934 32.1404 41.9038 27.342 38.2929 23.2662C38.2058 23.1679 38.0676 23.1013 38.0586 22.9048C38.4431 22.9048 38.8276 22.87 39.2061 22.9112C43.7963 23.4183 48.011 24.9808 51.7301 27.9093C52.0004 28.1248 52.397 28.147 52.5622 28.5178C52.5892 28.6161 52.6403 28.7143 52.6403 28.8126C52.6283 30.3593 52.7334 31.9059 52.5832 33.4557C52.2588 36.7456 51.3876 39.8421 49.8826 42.7516C47.0377 48.241 42.8651 52.1678 37.4037 54.548C33.2701 56.3483 28.9593 56.773 24.5463 56.082C23.1915 55.8697 21.8516 55.5527 20.5719 55.0171C20.5389 54.7762 20.3616 54.697 20.1754 54.6178C19.0999 54.1519 18.0185 53.7018 17.0241 53.0521C16.8769 52.957 16.7147 52.8778 16.5344 52.8841C16.4413 52.8176 16.3452 52.7668 16.228 52.7637C16.1649 52.5957 16.0418 52.5228 15.8766 52.5165C15.8105 52.3548 15.6873 52.2819 15.5281 52.2661C15.48 52.1647 15.3959 52.133 15.2938 52.1393C15.2517 51.9491 15.1225 51.8858 14.9573 51.8731C14.8792 51.648 14.699 51.5561 14.5007 51.4864C14.4286 51.3406 14.3054 51.2646 14.1642 51.2075C14.0621 51.0237 13.8969 50.9096 13.7437 50.7796C11.8842 49.1791 10.2199 47.382 8.84705 45.2998C6.05627 41.0686 4.55424 36.3843 4.46712 31.2182C4.4491 30.1025 4.46412 28.9901 4.46412 27.8744C4.50017 27.4402 4.6684 27.0409 4.74049 26.613C4.94177 25.4213 4.98382 24.1916 5.4855 23.0697C5.53357 22.9651 5.52155 22.8288 5.53657 22.7052C5.7799 22.2583 5.97516 21.7956 6.0052 21.2694L6.01422 21.2536C6.19746 21.2092 6.2215 21.0349 6.28458 20.8891C6.55795 20.2647 6.83132 19.6404 7.10169 19.0192C7.57333 18.0335 8.15311 17.1175 8.72088 16.1952C8.81701 16.0368 9.01528 15.91 8.93717 15.666C9.19252 15.6089 9.26762 15.4124 9.28564 15.1684C9.56502 15.0669 9.71823 14.8483 9.7753 14.5503H9.75728C10.2049 14.2271 10.5654 13.8024 10.9289 13.3872C11.5177 12.7121 12.2236 12.1955 12.8815 11.6123C12.9055 11.644 12.9356 11.6852 12.9656 11.7264Z" fill="#383838"/>
<path d="M20.5687 55.0109C21.8485 55.5497 23.1883 55.8634 24.5431 56.0758C28.9561 56.7667 33.2669 56.342 37.4005 54.5418C42.8619 52.1616 47.0375 48.2347 49.8794 42.7453C51.3844 39.8358 52.2556 36.7393 52.58 33.4495C52.7333 31.8997 52.6281 30.353 52.6371 28.8064C52.6371 28.7081 52.5861 28.6098 52.559 28.5116C52.565 28.3531 52.535 28.1186 52.7873 28.3119C53.0397 28.5053 53.271 28.7335 53.5023 28.9553C53.6615 29.1106 53.7636 29.0726 53.8718 28.8919C54.1331 28.4609 54.4035 28.033 54.7009 27.5576C54.8391 27.7288 54.8631 27.8841 54.8872 28.0362C55.2477 30.3245 55.4669 32.6286 55.3408 34.9455C55.1485 38.4762 54.4336 41.8769 53.1508 45.1636C50.36 52.3042 43.4717 60.177 33.0656 62.2434C23.9693 64.05 15.8373 61.6951 8.93699 55.1313C4.2116 50.634 1.34873 44.9798 0.34537 38.3399C-1.50213 26.0807 4.09444 14.1004 14.4134 8.14509C14.6177 8.02782 14.8069 7.86935 15.0503 7.84717C15.0713 7.87252 15.0953 7.89788 15.1194 7.92006C14.4945 8.8899 13.8096 9.81536 13.2899 10.8549C13.2268 10.9817 13.1457 11.1053 12.9775 11.0799C12.9204 11.0419 12.8663 11.0166 12.8423 11.118L12.8903 11.1053L12.9024 11.156C12.4097 11.2289 12.0973 11.5427 12.0252 12.0434L12.0102 12.0942L11.9621 12.091C11.8479 12.0403 11.7278 12.0434 11.6346 12.1258C11.169 12.5189 10.7394 12.9531 10.388 13.4665C10.3519 13.5204 10.3729 13.6186 10.3669 13.6979L10.3699 13.6915C10.2888 13.6979 10.2498 13.7422 10.2468 13.8246L10.2558 13.8151C10.1777 13.8215 10.1356 13.869 10.1326 13.9514L10.1416 13.9419C10.0635 13.9482 10.0215 13.9958 10.0155 14.0782L10.0245 14.0687C9.94636 14.0782 9.90731 14.1257 9.8983 14.205L9.90731 14.1923C9.83221 14.205 9.79015 14.2525 9.78114 14.3317L9.79616 14.3191C9.58587 14.3539 9.49875 14.4807 9.54382 14.7026L9.54682 14.6835C9.46871 14.6899 9.42966 14.7374 9.42666 14.8198L9.43567 14.8103C9.35756 14.8198 9.31851 14.8674 9.3125 14.9466L9.32452 14.9371C9.11123 14.9656 9.03913 15.0987 9.07518 15.3111L9.07819 15.3016C9.00008 15.3111 8.96103 15.3586 8.95802 15.441L8.97004 15.4315C8.75074 15.4569 8.68465 15.5932 8.72371 15.8055L8.72671 15.796C8.6486 15.8055 8.61256 15.8562 8.60655 15.9355L8.61856 15.9259C8.40227 15.9545 8.33919 16.0939 8.37523 16.3031L8.37824 16.2968C8.15894 16.3253 8.10186 16.4647 8.13791 16.6739L8.14092 16.6676C7.91862 16.6929 7.86454 16.8387 7.9036 17.0447L7.9066 17.0384C7.6873 17.0669 7.63623 17.2127 7.66928 17.4187L7.67529 17.4061C7.55212 17.4473 7.51607 17.536 7.54611 17.6628L7.54912 17.6596C7.22768 17.742 7.1676 17.9861 7.19764 18.2871L7.23369 18.2903C6.89723 18.2967 6.86119 18.6168 6.75304 18.8386C4.46995 23.4469 3.59877 28.3436 4.10345 33.5129C4.52402 37.8106 5.93894 41.7248 8.24306 45.284C8.71469 46.013 9.1653 46.7673 9.81719 47.3473C10.0785 47.8512 10.4571 48.2442 10.8866 48.5834C10.9257 48.6246 10.9647 48.6658 11.0068 48.707C11.0458 48.7482 11.0819 48.7862 11.1209 48.8274C11.163 48.8686 11.2021 48.913 11.2441 48.9542C11.2832 48.9954 11.3192 49.0334 11.3583 49.0746C11.6046 49.4296 11.872 49.756 12.2805 49.9177C12.1003 49.5088 11.7879 49.2299 11.4484 48.9827C11.4093 48.9415 11.3703 48.9003 11.3312 48.8591C11.2922 48.8179 11.2531 48.7767 11.2111 48.7323C11.172 48.6911 11.133 48.6499 11.0969 48.6087C11.0579 48.5675 11.0188 48.5263 10.9798 48.4851C10.6854 48.0192 10.2858 47.6484 9.92233 47.249C9.85624 47.1476 9.79916 47.0399 9.72406 46.9448C8.25808 45.0717 7.06847 43.0242 6.15823 40.7898C4.60513 36.9834 4.04638 33.0026 4.27469 28.8824C4.29271 28.537 4.32876 28.1852 4.46094 27.8555C4.46094 28.9712 4.44592 30.0868 4.46394 31.1992C4.55106 36.3685 6.05309 41.0497 8.84387 45.2808C10.2167 47.3631 11.878 49.1602 13.7405 50.7607C13.8907 50.8907 14.0559 51.0048 14.1611 51.1886C14.143 51.2108 14.125 51.2361 14.107 51.2583C14.0379 51.2456 13.9688 51.233 13.8997 51.2203C13.8276 51.1696 13.7555 51.122 13.6834 51.0713C13.6354 50.9541 13.5512 50.8812 13.4371 50.8431C13.395 50.8051 13.353 50.7671 13.3139 50.729C13.2448 50.6752 13.1727 50.6213 13.1036 50.5706C13.0225 50.4026 12.8964 50.2885 12.7311 50.2219C12.6801 50.1776 12.629 50.1047 12.5689 50.1997C12.5629 50.2093 12.629 50.2726 12.659 50.3107C12.7431 50.4755 12.8693 50.5896 13.0345 50.653C13.1066 50.7005 13.1757 50.7481 13.2478 50.7956C13.2899 50.8336 13.3289 50.8717 13.371 50.9097C13.4281 51.0238 13.5122 51.0999 13.6293 51.1411C13.7014 51.1918 13.7705 51.2393 13.8426 51.29C13.9358 51.4358 14.0529 51.5309 14.2332 51.4992L14.2272 51.4929C14.2662 51.7052 14.4014 51.7654 14.5876 51.7464L14.5816 51.7401C14.5906 51.8161 14.6387 51.8542 14.7048 51.87L14.6988 51.8637C14.7499 52.057 14.882 52.1204 15.0593 52.1172L15.0533 52.1141C15.1013 52.2282 15.1885 52.2535 15.2936 52.244L15.2876 52.2377C15.3266 52.45 15.4648 52.5071 15.6481 52.4912L15.6421 52.4849C15.6871 52.6877 15.8253 52.7416 16.0026 52.7384L15.9965 52.7353C16.0476 52.843 16.1317 52.8747 16.2369 52.8652L16.2309 52.8589C16.2819 53.0997 16.4892 53.1536 16.6544 53.2455C17.4295 53.6797 18.2075 54.1076 19.0246 54.4436C19.5323 54.6654 20.016 54.9412 20.5687 55.0109Z" fill="#383838"/>
<path d="M81.4101 38.2224C81.5513 38.01 81.5093 37.8389 81.5093 37.6804C81.5123 34.6822 81.5123 31.6871 81.5123 28.6888C81.5123 28.5843 81.5063 28.4828 81.5093 28.3782C81.5183 28.1405 81.4101 28.0423 81.1908 28.0518C81.0346 28.0581 80.8784 28.0518 80.7222 28.0518C75.393 28.0518 70.0668 28.0518 64.7376 28.0518C64.5603 28.0518 64.3861 28.0518 64.2089 28.0518C63.2716 28.0486 63.1154 27.887 63.1124 26.9013C63.1124 26.4069 63.1034 25.9093 63.1154 25.4149C63.1304 24.8254 63.3467 24.6098 63.9115 24.5845C64.0677 24.5781 64.2239 24.5813 64.3801 24.5813C71.9023 24.5813 79.4244 24.5908 86.9466 24.5718C88.1032 24.5686 88.3735 24.819 88.3165 26.0487C88.2954 26.483 88.3225 26.9172 88.3075 27.3514C88.2894 27.8997 88.0671 28.1405 87.5534 28.1691C87.22 28.1881 86.8865 28.1817 86.5561 28.1722C86.3128 28.1659 86.1896 28.2578 86.2046 28.5304C86.2136 28.7174 86.2046 28.9012 86.2046 29.0882C86.2046 37.5188 86.2046 45.9525 86.2046 54.3831C86.2046 54.6113 86.2166 54.8395 86.1956 55.0645C86.1385 55.6477 85.6759 55.9107 85.1742 55.6477C84.9309 55.5177 84.7026 55.3529 84.4683 55.204C83.6451 54.681 82.831 54.1486 81.9989 53.6446C81.7256 53.4798 81.6234 53.2833 81.6264 52.9505C81.6414 51.4007 81.6414 49.8509 81.6294 48.301C81.6084 45.1792 80.4338 42.5644 78.4001 40.3681C77.1263 38.9925 75.5372 38.3111 73.6957 38.327C72.3078 38.3396 71.0611 39.5091 70.8869 40.9734C70.8659 41.1572 70.8478 41.3442 70.8328 41.5281C70.7938 42.0003 70.9109 42.4377 71.1723 42.8148C71.9143 43.8734 73.8038 44.4724 75.0295 43.5279C75.5162 43.1539 75.8286 42.7039 75.7805 42.0193C75.7445 41.49 75.7745 40.9576 75.7745 40.4029C78.388 41.3791 79.2532 43.2966 79.0189 45.1919C78.8957 46.1744 78.4782 46.9984 77.8173 47.683C77.0062 48.5229 76.0178 49.0015 74.8973 49.1441C73.8369 49.2804 72.7825 49.1821 71.7581 48.8557C70.1269 48.3391 68.8501 47.3249 68.0601 45.718C66.8104 43.173 66.4349 40.517 67.3661 37.7565C67.8017 36.4697 68.5407 35.3826 69.493 34.454C71.0731 32.9136 72.9267 32.5714 74.9604 33.088C77.0332 33.6141 78.6975 34.8501 80.1034 36.4982C80.554 37.037 80.9565 37.6234 81.4101 38.2224Z" fill="#383838"/>
<path d="M21.1577 30.2866C21.2899 29.6781 21.5573 29.1235 21.8186 28.572C25.1111 21.5518 30.4222 17.3365 37.7101 15.8944C40.8223 15.2796 43.9045 15.4792 46.9566 16.335C47.1068 16.3762 47.26 16.4205 47.4102 16.4554C47.4463 16.4649 47.4853 16.4522 47.5634 16.4459C47.6506 16.2716 47.6055 16.0656 47.5995 15.8691C47.5454 14.446 47.4853 13.0198 47.4283 11.5967C47.4162 11.2671 47.4162 10.9343 47.3892 10.6047C47.3652 10.3068 47.4763 10.2054 47.7557 10.2117C48.735 10.2339 49.7113 10.3226 50.6787 10.4874C54.3046 11.1118 57.564 12.6363 60.4779 14.9911C60.571 15.0672 60.6612 15.1464 60.7573 15.2162C60.9375 15.3461 60.9586 15.4887 60.8264 15.6821C60.6431 15.9515 60.4809 16.2335 60.3097 16.5093C58.1648 19.9386 56.0199 23.371 53.872 26.7971C53.7548 26.981 53.6737 27.2028 53.4935 27.3232C53.3643 27.3359 53.3102 27.2377 53.2441 27.1711C50.3182 24.2014 46.7974 22.4456 42.8501 21.6532C37.7672 20.6327 32.9156 21.425 28.3494 24.0081C25.781 25.4628 23.612 27.4342 21.7615 29.8049C21.5993 30.0109 21.4311 30.2106 21.2659 30.4134C21.2298 30.3785 21.1938 30.331 21.1577 30.2866Z" fill="#383838"/>
<path d="M30.9329 10.3475C25.6818 12.6453 21.5452 16.2648 18.6402 21.3833C15.7293 26.5146 14.8071 32.0927 15.3328 38.0258C15.2246 37.8642 15.1075 37.712 15.0113 37.5441C13.0647 34.1782 11.8451 30.5429 11.5176 26.6065C10.8117 18.1537 13.3411 10.9465 19.1209 5.03879C20.9023 3.21639 22.9511 1.77115 25.1891 0.630167C25.3123 0.566779 25.4384 0.506561 25.5586 0.440004C25.7388 0.341752 25.856 0.40831 25.9341 0.585796C25.9581 0.642845 25.9882 0.696724 26.0152 0.750604C27.6224 3.87245 29.2296 6.9943 30.8337 10.1162C30.8638 10.17 30.8818 10.2271 30.9329 10.3475Z" fill="#383838"/>
<path d="M45.8841 14.7693C40.4017 13.9135 35.1145 14.6393 30.1038 17.2034C25.108 19.7579 21.3589 23.7196 18.6162 28.7906C19.193 24.6229 20.8572 20.9876 23.3746 17.7738C25.889 14.5633 29.0373 12.2876 32.7623 10.8646C32.7503 10.592 32.6091 10.4145 32.513 10.2244C31.765 8.77277 31.011 7.32436 30.263 5.87278C30.0226 5.40688 30.0226 5.39737 30.4432 5.10262C33.261 3.12809 36.3402 1.88568 39.6957 1.40077C41.5132 1.13771 43.3246 1.12186 45.1421 1.38809C45.6107 1.45782 45.6137 1.45465 45.6288 1.94273C45.7039 4.58601 45.776 7.22928 45.8481 9.87572C45.8871 11.3019 45.9262 12.725 45.9592 14.1512C45.9652 14.3446 46.0163 14.5569 45.8841 14.7693Z" fill="#383838"/>
<path d="M10.364 13.6946C10.37 13.6154 10.3459 13.5171 10.385 13.4632C10.7365 12.953 11.166 12.5187 11.6317 12.1226C11.7278 12.0433 11.845 12.037 11.9591 12.0877C11.4815 12.6836 10.9498 13.2192 10.364 13.6946Z" fill="#383838"/>
<path d="M12.0251 12.0432C12.0972 11.5456 12.4097 11.2287 12.9023 11.1558C12.7191 11.571 12.3436 11.7738 12.0251 12.0432Z" fill="#383838"/>
<path d="M21.1569 30.2866C21.1928 30.331 21.2288 30.3754 21.2647 30.4197C21.2318 30.5624 21.13 30.6448 20.9592 30.8127C21.0371 30.5719 21.0281 30.4071 21.1569 30.2866Z" fill="#383838"/>
<path d="M9.54376 14.7023C9.49883 14.4805 9.58569 14.3537 9.79535 14.3188C9.87921 14.4139 9.78337 14.471 9.75342 14.5439H9.77139C9.69052 14.5851 9.65757 14.7087 9.54376 14.7023Z" fill="#383838"/>
<path d="M15.0503 7.84827C15.0736 7.8268 15.1114 7.78077 15.1173 7.78384C15.1784 7.82373 15.1493 7.87282 15.1173 7.91578C15.094 7.8943 15.0736 7.87282 15.0503 7.84827Z" fill="#383838"/>
<path d="M12.8455 11.1188C12.8688 11.0237 12.9183 11.0452 12.9766 11.082C12.9417 11.1403 12.8979 11.1495 12.8455 11.1188Z" fill="#383838"/>
<path d="M12.8784 11.601C12.9254 11.5732 12.9606 11.4649 13.028 11.5515C13.0808 11.6226 13.0192 11.6783 12.9664 11.7216C12.9342 11.6814 12.9048 11.6412 12.8784 11.601Z" fill="#383838"/>
<path d="M9.77832 14.325C9.78707 14.2477 9.82788 14.2013 9.90076 14.189C9.927 14.3034 9.90368 14.3652 9.77832 14.325Z" fill="#383838"/>
<path d="M9.89526 14.1984C9.90401 14.1211 9.94191 14.0747 10.0177 14.0654C10.041 14.1768 10.0119 14.2324 9.89526 14.1984Z" fill="#383838"/>
<path d="M10.0125 14.0738C10.0183 13.9941 10.0591 13.9511 10.1349 13.9419C10.1582 14.0524 10.1232 14.1014 10.0125 14.0738Z" fill="#383838"/>
<path d="M10.1296 13.9469C10.1355 13.8671 10.1738 13.8211 10.2504 13.8149C10.2651 13.9162 10.2386 13.9714 10.1296 13.9469Z" fill="#383838"/>
<path d="M10.2468 13.8203C10.2498 13.7405 10.288 13.6945 10.3675 13.6914C10.3705 13.7773 10.341 13.8326 10.2468 13.8203Z" fill="#383838"/>
<path d="M9.82318 47.3534C9.1713 46.7734 8.72069 46.0191 8.24905 45.2901C5.94494 41.7309 4.53303 37.8135 4.10945 33.519C3.60177 28.3497 4.47294 23.453 6.75904 18.8447C6.86718 18.626 6.90323 18.3059 7.23969 18.2964C7.24269 18.5182 7.10451 18.6735 7.02039 18.8574C6.60583 19.618 6.22431 20.3914 6.01403 21.2439L6.00502 21.2598C5.75268 21.7035 5.5484 22.163 5.53638 22.6955C5.52136 22.8191 5.53338 22.9522 5.48531 23.06C4.98364 24.1819 4.94158 25.4148 4.74031 26.6034C4.66821 27.0312 4.49998 27.4306 4.46393 27.8648C4.33476 28.1944 4.29871 28.5462 4.27768 28.8917C4.04937 33.0087 4.60813 36.9895 6.16123 40.7991C7.07146 43.0303 8.25807 45.0809 9.72705 46.954C9.80216 47.0491 9.85923 47.1569 9.92532 47.2583C9.88927 47.29 9.85623 47.3217 9.82318 47.3534Z" fill="#383838"/>
<path d="M20.5688 55.0109C20.0161 54.9412 19.5324 54.6655 19.0247 54.4563C18.2076 54.1203 17.4266 53.6924 16.6545 53.2582C16.4893 53.1663 16.282 53.1093 16.231 52.8716C16.3331 52.8716 16.4322 52.8747 16.5344 52.8747C16.7176 52.8684 16.8768 52.9476 17.024 53.0427C18.0184 53.6925 19.0998 54.1425 20.1753 54.6084C20.3585 54.6908 20.5358 54.7669 20.5688 55.0109Z" fill="#383838"/>
<path d="M7.02051 18.8547C7.10462 18.674 7.24281 18.5155 7.2398 18.2937L7.20376 18.2905C7.45309 18.1637 7.54021 17.9355 7.55523 17.663L7.55223 17.6661C7.68441 17.6313 7.74749 17.5584 7.6814 17.4094L7.67539 17.4221C7.87366 17.3777 7.93074 17.2351 7.91271 17.0418L7.90971 17.0481C8.08995 16.9942 8.16506 16.8643 8.14703 16.6709L8.14403 16.6773C8.32127 16.6202 8.40238 16.4966 8.38435 16.3001L8.38135 16.3065C8.56159 16.2526 8.65171 16.1353 8.62468 15.9293L8.61266 15.9388C8.73282 15.9705 8.74184 15.8944 8.73282 15.7994L8.72982 15.8089C8.84397 15.8374 8.86801 15.6884 8.95813 15.6758L8.94311 15.6567C9.02422 15.9008 8.82295 16.0276 8.72682 16.186C8.15905 17.1115 7.58227 18.0274 7.11063 19.01C7.07458 18.9561 7.04754 18.9054 7.02051 18.8547Z" fill="#383838"/>
<path d="M7.0206 18.8545C7.04763 18.9052 7.07467 18.9559 7.10171 19.0066C6.82834 19.631 6.55497 20.2554 6.2816 20.8797C6.21851 21.0224 6.19448 21.1967 6.01123 21.2442C6.22151 20.3853 6.60604 19.612 7.0206 18.8545Z" fill="#383838"/>
<path d="M5.53345 22.6926C5.54545 22.1633 5.74957 21.7006 6.00171 21.2568C5.97169 21.783 5.77658 22.2457 5.53345 22.6926Z" fill="#383838"/>
<path d="M9.54379 14.7027C9.65785 14.709 9.69087 14.5854 9.77492 14.541C9.71788 14.8389 9.5678 15.0576 9.28564 15.159L9.30365 15.1781C9.30966 15.0988 9.3907 15.0228 9.32166 14.9372L9.30966 14.9467C9.42972 14.9816 9.45074 14.915 9.43273 14.8104L9.42372 14.8199C9.52878 14.8389 9.55279 14.7756 9.54379 14.6836V14.7027Z" fill="#383838"/>
<path d="M9.28444 15.1587C9.26647 15.3996 9.1916 15.5992 8.93701 15.6563L8.95199 15.6753C8.95798 15.5961 9.02387 15.52 8.96996 15.4344L8.95798 15.4439C9.07479 15.4725 9.08976 15.4027 9.07778 15.3045L9.07479 15.314C9.1916 15.3489 9.21256 15.1999 9.30242 15.1809L9.28444 15.1587Z" fill="#383838"/>
<path d="M14.4976 51.4771C14.6927 51.5468 14.8728 51.6387 14.9539 51.8637L14.9419 51.8796C14.8608 51.8796 14.7828 51.8796 14.7017 51.8796L14.7077 51.8859C14.6927 51.8162 14.6477 51.775 14.5847 51.756L14.5907 51.7623C14.5486 51.6799 14.5066 51.6007 14.4646 51.5183L14.4976 51.4771Z" fill="#383838"/>
<path d="M14.9542 51.8638C15.119 51.8765 15.2508 51.9401 15.2897 52.131L15.2927 52.1278C15.2118 52.1278 15.131 52.1278 15.0501 52.131L15.0561 52.1342C15.0171 52.0483 14.9782 51.9656 14.9363 51.8797L14.9542 51.8638Z" fill="#383838"/>
<path d="M14.1641 51.2012C14.3021 51.2582 14.4252 51.3343 14.5003 51.4801L14.4642 51.5181C14.3862 51.5149 14.3081 51.5118 14.2331 51.5086L14.2391 51.5149C14.1971 51.4357 14.1551 51.3533 14.113 51.2741C14.128 51.2455 14.1461 51.2234 14.1641 51.2012Z" fill="#383838"/>
<path d="M15.5281 52.2534C15.6868 52.2693 15.8096 52.3457 15.8755 52.5048L15.8815 52.4952C15.8006 52.4952 15.7228 52.4952 15.6419 52.4952L15.6479 52.5016C15.6089 52.4157 15.57 52.3298 15.5311 52.2471L15.5281 52.2534Z" fill="#383838"/>
<path d="M15.8765 52.5069C16.0412 52.5164 16.164 52.5864 16.2269 52.755L16.2359 52.7455C16.155 52.7455 16.0741 52.7455 15.9933 52.7455L15.9993 52.7487C15.9603 52.6628 15.9214 52.5769 15.8825 52.4941L15.8765 52.5069Z" fill="#383838"/>
<path d="M15.2938 52.1301C15.3956 52.1206 15.4795 52.1522 15.5274 52.2564L15.5304 52.2501C15.4495 52.2501 15.3687 52.2501 15.2908 52.2501L15.2968 52.2564C15.2968 52.2122 15.2968 52.1712 15.2968 52.127L15.2938 52.1301Z" fill="#383838"/>
<path d="M16.5304 52.8743C16.4285 52.8743 16.3297 52.8712 16.2278 52.8712L16.2338 52.8775C16.2338 52.8333 16.2338 52.7922 16.2338 52.748L16.2249 52.7575C16.3417 52.7575 16.4375 52.8112 16.5304 52.8743Z" fill="#383838"/>
<path d="M10.8927 48.5894C10.4631 48.2471 10.0816 47.8573 9.82324 47.3534C9.85629 47.3217 9.88933 47.29 9.92538 47.2583C10.2889 47.6608 10.6884 48.0285 10.9828 48.4944C10.9528 48.5261 10.9227 48.5578 10.8927 48.5894Z" fill="#383838"/>
<path d="M11.4514 48.9888C11.7909 49.236 12.1033 49.5149 12.2836 49.9237C11.878 49.7621 11.6077 49.4357 11.3613 49.0807C11.3914 49.049 11.4214 49.0173 11.4514 48.9888Z" fill="#383838"/>
<path d="M7.55405 17.666C7.53907 17.9386 7.45221 18.1668 7.20362 18.2936C7.17367 17.9925 7.23357 17.7484 7.55405 17.666Z" fill="#383838"/>
<path d="M13.0402 50.6657C12.8752 50.5991 12.7491 50.485 12.665 50.3202C12.6891 50.2917 12.7131 50.26 12.7371 50.2314C12.9022 50.298 13.0282 50.4121 13.1093 50.5801C13.0823 50.6118 13.0613 50.6371 13.0402 50.6657Z" fill="#383838"/>
<path d="M15.2876 52.2505C15.3685 52.2505 15.4493 52.2505 15.5272 52.2505C15.5661 52.3364 15.6051 52.4223 15.644 52.505C15.4643 52.5209 15.3265 52.4637 15.2876 52.2505Z" fill="#383838"/>
<path d="M15.8818 52.4976C15.9207 52.5835 15.9596 52.6694 15.9986 52.7521C15.8249 52.7553 15.6841 52.7012 15.6392 52.4976C15.723 52.4976 15.8009 52.4976 15.8818 52.4976Z" fill="#383838"/>
<path d="M9.30296 15.1779C9.2131 15.1969 9.19213 15.3459 9.0753 15.311C9.03636 15.0955 9.11125 14.9655 9.32393 14.937C9.38683 15.0226 9.30895 15.0987 9.30296 15.1779Z" fill="#383838"/>
<path d="M8.9663 15.4316C9.02021 15.5172 8.95431 15.5933 8.94832 15.6725C8.85846 15.6884 8.8345 15.8342 8.72067 15.8056C8.68472 15.5964 8.74763 15.4602 8.9663 15.4316Z" fill="#383838"/>
<path d="M8.61489 15.9292C8.64185 16.132 8.55198 16.2525 8.37225 16.3064C8.3393 16.0972 8.40221 15.9577 8.61489 15.9292Z" fill="#383838"/>
<path d="M8.1402 16.6738C8.15518 16.8672 8.08329 16.9971 7.90356 17.051C7.86761 16.8418 7.92153 16.6992 8.1402 16.6738Z" fill="#383838"/>
<path d="M7.90888 17.0449C7.92685 17.2383 7.86994 17.3809 7.67224 17.4252C7.63929 17.2224 7.68721 17.0734 7.90888 17.0449Z" fill="#383838"/>
<path d="M8.37755 16.2998C8.39552 16.4963 8.31465 16.6199 8.13791 16.677C8.10197 16.471 8.15888 16.3283 8.37755 16.2998Z" fill="#383838"/>
<path d="M14.1098 51.2709C14.1519 51.3502 14.1939 51.4326 14.2359 51.5118C14.0588 51.5435 13.9388 51.4484 13.8457 51.3026C13.8637 51.2805 13.8817 51.2551 13.9027 51.2329C13.9718 51.2456 14.0408 51.2583 14.1098 51.2709Z" fill="#383838"/>
<path d="M14.2302 51.5054C14.3081 51.5086 14.386 51.5117 14.4608 51.5149C14.5028 51.5976 14.5447 51.6772 14.5866 51.7599C14.4039 51.7822 14.2692 51.7185 14.2302 51.5054Z" fill="#383838"/>
<path d="M14.9415 51.8794C14.9805 51.9653 15.0194 52.048 15.0613 52.1339C14.8876 52.1371 14.7528 52.0735 14.7019 51.8794C14.7798 51.8794 14.8606 51.8794 14.9415 51.8794Z" fill="#383838"/>
<path d="M13.6316 51.1536C13.5178 51.1124 13.4309 51.0364 13.374 50.9223C13.395 50.9001 13.416 50.8747 13.4399 50.8525C13.5507 50.8937 13.6376 50.9635 13.6855 51.0807C13.6675 51.1093 13.6496 51.1314 13.6316 51.1536Z" fill="#383838"/>
<path d="M12.6591 50.3198C12.6272 50.2827 12.5661 50.2208 12.5719 50.2115C12.6301 50.1219 12.6795 50.1899 12.7289 50.2332C12.7056 50.261 12.6824 50.2919 12.6591 50.3198Z" fill="#383838"/>
<path d="M13.1064 50.583C13.1753 50.6371 13.2472 50.6912 13.3161 50.7421C13.2951 50.7644 13.2742 50.7866 13.2532 50.8121C13.1813 50.7644 13.1124 50.7166 13.0405 50.6657C13.0615 50.6371 13.0825 50.6116 13.1064 50.583Z" fill="#383838"/>
<path d="M7.67914 17.4126C7.74856 17.5621 7.68216 17.6321 7.54936 17.6703C7.51918 17.543 7.5554 17.454 7.67914 17.4126Z" fill="#383838"/>
<path d="M13.8482 51.3035C13.7763 51.2526 13.7074 51.2049 13.6355 51.154C13.6535 51.1317 13.6714 51.1063 13.6894 51.084C13.7613 51.1317 13.8332 51.1826 13.9051 51.2335C13.8841 51.2558 13.8661 51.2812 13.8482 51.3035Z" fill="#383838"/>
<path d="M16.2362 52.748C16.2362 52.7922 16.2362 52.8333 16.2362 52.8775C16.1314 52.887 16.0445 52.8554 15.9966 52.748C16.0745 52.748 16.1553 52.748 16.2362 52.748Z" fill="#383838"/>
<path d="M15.296 52.127C15.296 52.1712 15.296 52.2122 15.296 52.2564C15.1882 52.269 15.1013 52.2406 15.0564 52.127C15.1343 52.127 15.2152 52.127 15.296 52.127Z" fill="#383838"/>
<path d="M11.244 48.9551C11.203 48.9149 11.165 48.8716 11.127 48.8314C11.1562 48.8005 11.1855 48.7726 11.2118 48.7417C11.2499 48.7819 11.2879 48.8221 11.3289 48.8654C11.2996 48.8932 11.2733 48.9241 11.244 48.9551Z" fill="#383838"/>
<path d="M11.3585 49.0758C11.3205 49.0356 11.2854 48.9985 11.2473 48.9583C11.2736 48.9274 11.3029 48.8965 11.3322 48.8687C11.3702 48.9089 11.4083 48.9491 11.4463 48.9893C11.417 49.014 11.3878 49.0449 11.3585 49.0758Z" fill="#383838"/>
<path d="M13.3155 50.7417C13.3566 50.7788 13.3947 50.8159 13.4358 50.853C13.4152 50.8747 13.3947 50.8994 13.3742 50.921C13.3331 50.8839 13.295 50.8468 13.2539 50.8097C13.2744 50.7881 13.295 50.7633 13.3155 50.7417Z" fill="#383838"/>
<path d="M8.72129 15.7993C8.73012 15.8921 8.72129 15.9663 8.60352 15.9354C8.6094 15.8581 8.64474 15.8086 8.72129 15.7993Z" fill="#383838"/>
<path d="M9.07578 15.3047C9.08756 15.3975 9.07284 15.4686 8.95801 15.4407C8.96095 15.3603 8.99923 15.3109 9.07578 15.3047Z" fill="#383838"/>
<path d="M14.5847 51.7529C14.6465 51.7744 14.6907 51.8112 14.7054 51.8787C14.6377 51.8665 14.5935 51.8296 14.5847 51.7529Z" fill="#383838"/>
<path d="M9.43029 14.8101C9.44795 14.9121 9.42734 14.977 9.30957 14.943C9.31546 14.8657 9.35374 14.8193 9.43029 14.8101Z" fill="#383838"/>
<path d="M9.54453 14.6836C9.55336 14.7726 9.52981 14.8339 9.42676 14.8155C9.4297 14.7358 9.46503 14.6897 9.54453 14.6836Z" fill="#383838"/>
<path d="M10.9806 48.4912C11.0186 48.5314 11.0567 48.5716 11.0947 48.6118C11.0655 48.6427 11.0391 48.6737 11.0099 48.7046C10.9718 48.6644 10.9338 48.6242 10.8928 48.584C10.9221 48.5561 10.9513 48.5252 10.9806 48.4912Z" fill="#383838"/>
<path d="M11.0978 48.6182C11.1358 48.6584 11.1739 48.6986 11.209 48.7388C11.1797 48.7697 11.1534 48.7975 11.1241 48.8284C11.0861 48.7882 11.051 48.7511 11.0129 48.7109C11.0393 48.68 11.0685 48.6491 11.0978 48.6182Z" fill="#383838"/>
</g>
<defs>
<clipPath id="clip0_1374_15">
<rect width="135.615" height="62.437" fill="white" transform="translate(0 0.395996)"/>
</clipPath>
</defs>
</svg>
