<svg width="52" height="64" viewBox="0 0 52 64" fill="none" xmlns="http://www.w3.org/2000/svg">
<g opacity="0.6" clip-path="url(#clip0_1374_117)">
<path d="M51.2281 22.8178C51.2281 27.9797 51.3349 33.1451 51.2031 38.3034C51.0123 45.7708 47.8725 51.5486 41.635 55.3934C36.6436 58.4709 31.3466 60.8958 26.0155 63.245C25.8031 63.3384 25.4873 63.3443 25.2749 63.2521C20.2664 61.0684 15.3205 58.7488 10.5767 55.9834C7.61296 54.2549 5.0173 52.109 3.14751 49.1025C1.42766 46.3359 0.371221 43.3021 0.182652 40.0307C-0.00705364 36.7523 0.0270252 33.4572 0.0179375 30.1681C-0.00137384 22.3271 0.0168015 14.485 -0.000237882 6.64403C-0.00137384 6.13801 0.151981 5.88145 0.575694 5.64499C4.054 3.70603 7.75269 2.41615 11.5888 1.51525C17.4845 0.131968 23.4619 -0.199074 29.4745 0.10714C35.3826 0.408624 41.1669 1.44904 46.6923 3.73677C48.094 4.31728 49.4356 5.05739 50.8112 5.7112C51.1566 5.87554 51.2418 6.12264 51.2418 6.50452C51.2304 11.9419 51.2338 17.3804 51.2338 22.8178C51.2315 22.8178 51.2293 22.8178 51.2281 22.8178ZM48.3723 23.241C48.3598 23.241 48.3485 23.241 48.336 23.241C48.336 22.0788 48.3394 20.9166 48.3349 19.7545C48.3224 15.7749 48.2951 11.7953 48.3042 7.81568C48.3053 7.24463 48.1179 7.07202 47.601 7.04246C45.203 6.9065 42.8084 6.67713 40.4093 6.59792C34.9612 6.41821 29.5529 6.81664 24.2218 8.05805C16.3496 9.8906 9.30554 13.4126 3.35198 19.1598C3.03618 19.4648 2.88169 19.7615 2.88283 20.2226C2.8976 25.5028 2.85897 30.784 2.91123 36.0642C2.92827 37.8293 3.02141 39.6181 3.32812 41.349C4.13125 45.8795 6.37136 49.5092 10.1098 52.0275C14.8922 55.2492 20.1085 57.5889 25.3101 59.95C25.5055 60.0387 25.8054 60.0174 26.0076 59.9275C30.7195 57.823 35.3804 55.611 39.8208 52.9236C41.9905 51.6113 43.8989 50.0034 45.3484 47.841C47.5669 44.5305 48.3701 40.8028 48.3723 36.835C48.3735 32.3057 48.3723 27.7727 48.3723 23.241Z" fill="#383838"/>
<path d="M25.0968 43.2414C25.0968 44.2841 25.0957 45.2643 25.0968 46.2456C25.0979 48.2354 25.0922 50.2252 25.1093 52.2149C25.1127 52.6087 25.0218 52.7813 24.6072 52.7754C23.1304 52.7529 21.6537 52.7517 20.1781 52.7694C19.7635 52.7742 19.6181 52.6406 19.6215 52.1972C19.6374 50.3055 19.6215 48.4151 19.6181 46.5234C19.6033 39.2736 19.5885 32.025 19.5749 24.7752C19.5738 23.9274 19.6078 23.0797 19.5692 22.2344C19.5476 21.7662 19.7317 21.5203 20.0929 21.3004C21.8548 20.2281 23.7677 19.7741 25.7897 19.7445C30.0996 19.6818 33.0292 21.8206 34.2424 26.1312C35.4352 30.3674 35.3068 34.5941 33.5086 38.6434C32.2011 41.5873 29.9382 43.213 26.7723 43.3371C26.2498 43.3584 25.7204 43.2804 25.0968 43.2414ZM25.1025 31.4882C25.1025 33.3964 25.1025 35.3058 25.1025 37.214C25.1025 38.4779 25.3955 38.7144 26.6167 38.4413C26.6531 38.433 26.6894 38.4188 26.7258 38.4093C28.1014 38.0487 28.6978 36.9208 28.8966 35.6534C29.1681 33.9154 29.2976 32.142 29.3316 30.3804C29.3589 28.9924 29.2215 27.589 28.6739 26.2767C28.1241 24.9596 27.087 24.3578 25.7125 24.5564C25.2808 24.6191 25.0775 24.7586 25.0866 25.2918C25.1252 27.3561 25.1025 29.4227 25.1025 31.4882Z" fill="#383838"/>
<path d="M18.4469 20.2836C18.4469 22.3751 18.4469 24.4217 18.4469 26.4694C18.4469 31.1974 18.439 35.9265 18.4583 40.6545C18.4605 41.1546 18.3072 41.4443 17.8994 41.689C15.6411 43.0487 13.192 43.4542 10.6292 43.3135C9.42284 43.2473 8.27098 42.973 7.22476 42.3121C5.54126 41.2492 4.72451 39.5999 4.45529 37.6527C4.29625 36.5094 4.2724 35.3389 4.26785 34.1791C4.24968 29.7656 4.2724 25.3533 4.25649 20.9398C4.25422 20.4137 4.41098 20.2624 4.90285 20.273C6.26487 20.3026 7.62916 20.3073 8.99117 20.2706C9.51031 20.2565 9.61936 20.4492 9.61482 20.9505C9.58755 24.8899 9.58301 28.8304 9.57733 32.771C9.57619 33.815 9.58982 34.8589 9.60914 35.9029C9.61368 36.1571 9.65117 36.4125 9.69433 36.6643C9.96469 38.2166 11.5164 38.9437 12.7966 38.0984C12.9239 38.0145 12.9875 37.7366 12.9886 37.5486C12.9988 33.3716 12.9932 29.1946 12.9954 25.0187C12.9966 23.6 13.0136 22.1824 13.0125 20.7637C13.0125 20.4421 13.0693 20.2387 13.4419 20.2399C15.0129 20.2423 16.5828 20.2281 18.1538 20.2222C18.2231 20.2222 18.2958 20.2505 18.4469 20.2836Z" fill="#383838"/>
<path d="M35.3659 36.0164C35.7055 36.3179 35.9452 36.5283 36.1815 36.7423C37.0675 37.5463 38.0717 38.1079 39.2236 38.3751C39.2974 38.3916 39.3712 38.4129 39.4451 38.4259C40.6117 38.6458 41.6091 38.2356 41.9908 37.3808C42.4133 36.4326 42.1589 35.2786 41.2399 34.5373C40.4061 33.8646 39.4826 33.3125 38.6079 32.6918C37.3254 31.7826 36.1258 30.754 35.5874 29.1875C33.654 23.561 37.6548 19.3697 42.5394 19.858C43.9378 19.9975 45.2351 20.435 46.3949 21.2874C46.68 21.4967 46.8254 21.7201 46.8209 22.1079C46.7993 23.7395 46.8118 25.3722 46.8118 27.1681C46.4767 26.8194 46.2256 26.5545 45.9723 26.2932C44.8852 25.1701 43.6436 24.4098 42.0453 24.5328C41.3217 24.5884 40.7037 24.865 40.4618 25.6477C40.2187 26.4316 40.3732 27.1717 40.9979 27.6777C41.7102 28.257 42.4895 28.7477 43.2528 29.2561C44.75 30.2539 46.1745 31.3463 46.9118 33.0997C48.4055 36.6501 47.2469 42.0508 42.3441 43.1598C41.1729 43.4246 40.0085 43.3998 38.8692 43.0357C37.8048 42.6952 36.7551 42.2979 35.7135 41.8865C35.5328 41.8155 35.3034 41.5507 35.3011 41.3722C35.2829 39.7583 35.3091 38.1445 35.3238 36.5307C35.3204 36.4172 35.3397 36.3013 35.3659 36.0164Z" fill="#383838"/>
</g>
<defs>
<clipPath id="clip0_1374_117">
<rect width="51.2693" height="63.3164" fill="white"/>
</clipPath>
</defs>
</svg>
